<?xml version="1.0" ?><svg xmlns="http://www.w3.org/2000/svg" xmlns:xlink="http://www.w3.org/1999/xlink" version="1.1" id="Layer_1" viewBox="0 0 3000 3000" enable-background="new 0 0 3000 3000" xml:space="preserve"><g id="Background"><g><path fill="#D8C899" d="M2029.438,2012.185c0,0-43.765-82.963,13.082-150.136c56.84-67.17,151.771-24.289,151.771-24.289    s-1.772-96.29,118.721-98.156c120.498-1.859,144.109,131.675,144.109,131.675s23.575-55.816,72.499-36.175    c48.927,19.639,8.363,83.733-16.792,92.175c0,0,73.073-35.099,94.451,21.104c21.392,56.208-70.036,36.971-70.036,36.971    s82.915,11.776,93.872,66.714c10.958,54.949-39.788,64.495-39.788,64.495s65.554-4.967,71.775,30.314    c6.219,35.281-95.859,27.157-95.859,27.157L2029.438,2012.185z"/><path fill="#C6B381" d="M2073.817,1898.102c43.342-34.712,153.701-8.559,153.701-8.559s-11.654-64.092,38.698-89.239    c50.351-25.145,146.972,26.955,160.406,88.48c0,0,40.814-9.588,64.341,1.393c23.522,10.979,4.595,66.198,4.595,66.198    s15.969-24.67,44.502-4.74c28.53,19.928-17.018,44.217-17.018,44.217s51.989,14.72,65.711,54.127    c13.722,39.405-38.071,75.204-38.071,75.204s78.491-4.687,72.775,47.82l0,0c22.47-2.88,42.506-9.912,39.644-26.131    c-6.221-35.281-71.775-30.314-71.775-30.314s50.747-9.546,39.788-64.495c-9.275-46.51-70.12-62.082-88.565-65.766    c19.152,3.078,82.98,10.035,64.729-37.918c-18.515-48.68-75.784-28.874-90.792-22.698c25.132-12.837,59.751-71.868,13.134-90.58    c-48.925-19.64-72.499,36.175-72.499,36.175s-23.611-133.534-144.109-131.675c-120.493,1.866-118.721,98.156-118.721,98.156    s-94.931-42.88-151.771,24.289c-56.847,67.173-13.082,150.136-13.082,150.136S2030.473,1932.815,2073.817,1898.102z"/></g><g><path fill="#D8C899" d="M383.112,2188.827c0,0-73.779-28.174-75.133-102.253c-1.358-74.075,82.526-99.686,82.526-99.686    s-54.617-59.936,20.578-128.059c75.201-68.122,164.328,3.242,164.328,3.242s-16.096-48.41,25.768-63.164    c41.866-14.758,51.811,48.328,40.586,67.644c0,0,26.731-62.802,71.48-39.123c44.762,23.676-23.77,62.301-23.77,62.301    s59.002-38.614,96.456-9.944c37.459,28.674,10.657,62.908,10.657,62.908s38.715-39.562,62.251-20.697    c23.536,18.863-45.557,70.436-45.557,70.436L383.112,2188.827z"/><path fill="#C6B381" d="M347.808,2091.996c8.137-46.042,92.486-90.806,92.486-90.806s-42.98-34.076-25.094-77.958    c17.885-43.882,107.959-64.6,150.641-33.139c0,0,20.494-28.74,41.477-34.865c20.983-6.122,39.687,39.328,39.687,39.328    s-3.603-24.48,25.52-27.723c29.122-3.241,13.8,37.429,13.8,37.429s41.069-19.57,71.644-2.261    c30.576,17.306,17.695,68.73,17.695,68.73s47.055-46.572,72.609-10.179l0,0c12.617-14.306,21.386-29.886,10.565-38.555    c-23.536-18.865-62.251,20.697-62.251,20.697s26.802-34.234-10.657-62.908c-31.709-24.274-78.856-0.322-92.57,7.595    c13.826-8.693,58.074-39.751,19.885-59.951c-38.759-20.511-63.987,23.836-70.052,36.083c8.77-22.084-2.125-78.664-42.014-64.604    c-41.865,14.755-25.768,63.164-25.768,63.164s-89.127-71.365-164.328-3.242c-75.195,68.122-20.578,128.059-20.578,128.059    s-83.884,25.611-82.526,99.686c1.355,74.079,75.133,102.253,75.133,102.253S339.673,2138.038,347.808,2091.996z"/></g><g><path fill="#D8C899" d="M1819.161,1915.233c0,0-32.339-47.697-2.174-92.562c30.161-44.864,91.031-25.105,91.031-25.105    s-7.599-58.677,65.85-67.973c73.454-9.292,96.911,70.649,96.911,70.649s10.615-35.678,41.82-26.996    c31.205,8.679,10.774,50.563-4.014,57.421c0,0,42.245-26.379,59.102,6.493c16.868,32.874-40.264,27.315-40.264,27.315    s51.428,1.58,61.837,34.385c10.411,32.811-19.93,42.076-19.93,42.076s39.693-7.472,45.88,13.651    c6.187,21.122-56.695,23.071-56.695,23.071L1819.161,1915.233z"/><path fill="#C6B381" d="M1838.538,1842.567c24.118-24.131,93.275-15.631,93.275-15.631s-11.455-38.347,17.589-57.11    c29.044-18.763,91.57,6.511,103.938,43.172c0,0,24.274-8.618,39.382-3.506c15.107,5.112,7.287,40.111,7.287,40.111    s8.081-16.145,26.853-5.906c18.77,10.238-7.398,28.152-7.398,28.152s32.742,5.469,43.788,28.603    c11.048,23.134-18.155,48.5-18.155,48.5s47.611-8.175,47.675,24.274l0,0c13.526-3.281,25.285-8.93,22.439-18.64    c-6.187-21.123-45.88-13.651-45.88-13.651s30.341-9.265,19.93-42.076c-8.812-27.774-47.019-33.163-58.531-34.163    c11.903,0.582,51.349,0.51,36.958-27.536c-14.601-28.473-48.23-12.502-56.977-7.715c14.478-9.54,31.621-47.929,1.889-56.199    c-31.205-8.682-41.82,26.996-41.82,26.996s-23.457-79.941-96.911-70.649c-73.449,9.296-65.85,67.973-65.85,67.973    s-60.87-19.759-91.031,25.105c-30.166,44.865,2.174,92.562,2.174,92.562S1814.422,1866.698,1838.538,1842.567z"/></g><g><path fill="#D8C899" d="M784.087,1993.168c0,0-40.62-25.817-32.396-70.216c8.22-44.396,61.429-49.462,61.429-49.462    s-25.305-42.446,27.899-73.955c53.208-31.508,97.726,21.969,97.726,21.969s-3.71-30.868,23.087-34.574    c26.797-3.708,25.044,35.173,15.988,45.339c0,0,23.618-34.242,47.45-14.646c23.841,19.594-21.789,34.301-21.789,34.301    s39.938-15.863,58.807,5.822c18.872,21.689-1.305,38.863-1.305,38.863s27.94-18.904,39.694-4.77    c11.754,14.133-35.79,36.504-35.79,36.504L784.087,1993.168z"/><path fill="#C6B381" d="M774.812,1931.046c10.472-26.5,66.295-42.947,66.295-42.947s-21.51-25.585-5.481-49.608    c16.029-24.022,72.339-25.411,93.989-1.422c0,0,15.742-14.664,29.018-15.762c13.275-1.098,18.901,28.321,18.901,28.321    s0.833-15.056,18.619-13.441c17.784,1.615,3.677,24.031,3.677,24.031s26.908-6.679,43.054,7.383    c16.147,14.062,2.189,43.197,2.189,43.197s33.774-22.072,44.595,2.775l0,0c9.277-7.005,16.413-15.239,11.009-21.735    c-11.754-14.134-39.694,4.77-39.694,4.77s20.177-17.174,1.305-38.863c-15.975-18.36-47.044-9.805-56.2-6.75    c9.316-3.506,39.523-16.657,19.182-33.373c-20.643-16.974-41.113,6.431-46.227,13.004c7.928-12.118,8.321-47.23-17.211-43.697    c-26.797,3.706-23.087,34.574-23.087,34.574s-44.517-53.478-97.726-21.969c-53.204,31.51-27.899,73.955-27.899,73.955    s-53.209,5.066-61.429,49.462c-8.223,44.399,32.396,70.216,32.396,70.216S764.342,1957.546,774.812,1931.046z"/></g><g><path fill="#E2DBBF" d="M2730.6,2260.054l-2461.2-0.002c144.368-225.119,640.612-391.04,1230.6-391.04    S2586.232,2034.933,2730.6,2260.054z"/><path fill="#A59063" d="M447.874,2194.814c0,0,14.277-21.848,0-47.691c0,0,18.502,8.549,16.771,23.847c0,0,9.808,14.822,12.694,0    c2.883-14.823,4.574,18.293-14.734,23.844c-19.305,5.549-19.305,12.601-22.766,2.987c-3.463-9.613-2.444-21.789-5.837-27.557    C430.606,2164.477,452.448,2172.604,447.874,2194.814z"/><path fill="#A59063" d="M1239.274,2172.893c0,0-18.731-28.658,0-62.558c0,0-24.273,11.214-22.003,31.278    c0,0-12.865,19.445-16.649,0c-3.783-19.443-6,24,19.327,31.28c25.326,7.28,25.326,16.529,29.868,3.918    c4.541-12.609,3.205-28.582,7.657-36.147C1261.926,2133.099,1233.274,2143.755,1239.274,2172.893z"/><path fill="#A59063" d="M1309.775,2016.725c0,0,18.731-28.658,0-62.557c0,0,24.273,11.213,22.003,31.28    c0,0,12.867,19.445,16.649,0c3.785-19.446,6.002,23.997-19.324,31.278c-25.327,7.28-25.327,16.529-29.868,3.918    c-4.542-12.608-3.205-28.579-7.656-36.147C1287.125,1976.932,1315.774,1987.59,1309.775,2016.725z"/><path fill="#A59063" d="M1765.776,2012.845c0,0,18.73-28.659,0-62.558c0,0,24.272,11.214,22.003,31.281c0,0,12.865,19.443,16.65,0    c3.784-19.446,5.999,23.997-19.325,31.278c-25.327,7.282-25.327,16.529-29.868,3.918c-4.541-12.609-3.205-28.579-7.659-36.147    C1743.126,1973.049,1771.775,1983.71,1765.776,2012.845z"/><path fill="#A59063" d="M1604.402,2220.344c0,0,18.733-28.658,0-62.56c0,0,24.273,11.214,22.003,31.28c0,0,12.867,19.445,16.65,0    c3.784-19.443,6.001,23.999-19.325,31.28c-25.327,7.281-25.327,16.527-29.868,3.918c-4.542-12.609-3.205-28.582-7.656-36.149    C1581.752,2180.548,1610.403,2191.206,1604.402,2220.344z"/><path fill="#A59063" d="M886.594,2136.54c0,0,18.73-28.66,0-62.56c0,0,24.273,11.214,22.003,31.278c0,0,12.867,19.446,16.649,0    c3.785-19.443,6.002,24-19.325,31.282c-25.326,7.278-25.326,16.527-29.868,3.918c-4.541-12.611-3.205-28.582-7.657-36.149    C863.943,2096.744,892.593,2107.403,886.594,2136.54z"/><path fill="#A59063" d="M630.249,2120.817c0,0-18.731-28.66,0-62.56c0,0-24.273,11.214-22.003,31.28c0,0-12.867,19.443-16.649,0    c-3.785-19.445-6.002,23.997,19.325,31.28c25.326,7.281,25.326,16.527,29.868,3.918c4.541-12.611,3.205-28.582,7.656-36.148    C652.899,2081.019,624.249,2091.677,630.249,2120.817z"/><path fill="#A59063" d="M2502.994,2193.524c0,0-18.73-28.659,0-62.56c0,0-24.272,11.216-22.003,31.28c0,0-12.865,19.445-16.649,0    c-3.785-19.443-6.002,23.999,19.325,31.28c25.326,7.28,25.326,16.529,29.868,3.918c4.541-12.609,3.203-28.582,7.657-36.149    C2525.645,2153.729,2496.993,2164.387,2502.994,2193.524z"/><path fill="#A59063" d="M2285.49,2171.493c0,0-18.73-28.659,0-62.56c0,0-24.272,11.214-22.003,31.28c0,0-12.867,19.446-16.649,0    c-3.786-19.443-6.002,24,19.325,31.281c25.327,7.28,25.327,16.528,29.868,3.918c4.541-12.609,3.203-28.582,7.656-36.147    C2308.139,2131.697,2279.489,2142.356,2285.49,2171.493z"/><path fill="#A59063" d="M1969.116,2183.989c0,0-18.73-28.658,0-62.559c0,0-24.272,11.216-22.003,31.28c0,0-12.865,19.445-16.649,0    c-3.785-19.446-6,23.999,19.327,31.28c25.324,7.281,25.324,16.527,29.866,3.918c4.541-12.611,3.205-28.582,7.656-36.149    C1991.767,2144.193,1963.116,2154.851,1969.116,2183.989z"/><path fill="#A59063" d="M2106.166,2059.076c0,0-18.731-28.658,0-62.56c0,0-24.273,11.214-22.003,31.282    c0,0-12.865,19.443-16.649,0c-3.783-19.445-6.002,23.997,19.327,31.278c25.326,7.281,25.326,16.529,29.865,3.918    c4.542-12.609,3.206-28.582,7.659-36.146C2128.817,2019.28,2100.167,2029.939,2106.166,2059.076z"/></g></g><g id="Cow"><g><g><g><path fill="#DDD5B3" d="M2210.84,827.068c0,0,66.819,0.37,83.562-15.44c16.743-15.812,51.368,5.138,51.368,5.138      s-42.428,49.004-37.196,66.489C2313.807,900.739,2192.041,894.104,2210.84,827.068z"/></g><path fill="#7E4B42" d="M2234.868,826.881c0,0,15.944-21.99,9.2-36.755c-6.75-14.766,9.198-33.982,32.097-51.156l13.083-13.903     c0,0-0.818,16.356-8.995,36.801c-8.179,20.444,5.724,41.704-2.455,65.013c-8.177,23.306-34.345,29.03-34.345,29.03     L2234.868,826.881z"/><path opacity="0.1" d="M2280.254,761.868c3.33-8.326,5.427-15.947,6.756-22.089c-6.452,4.784-11.666,11.06-14.944,18.533     c-3.654,8.328-4.904,17.329-4.255,26.356c0.525,7.276,2.263,18.383-3.804,23.982c-6.445,5.945-14.235-0.719-18.557-6.406     c-1.69,12.364-10.585,24.636-10.585,24.636l8.589,29.03c0,0,26.168-5.724,34.345-29.03     C2285.978,803.572,2272.075,782.312,2280.254,761.868z"/><g><path fill="#6D3B35" d="M2245.664,807.188c0,0,21.621,8.241,33.471,0.634C2279.135,807.823,2265.424,828.359,2245.664,807.188z"/><path fill="#6D3B35" d="M2245.672,783.338c0,0,19.542,7.449,30.255,0.575C2275.927,783.913,2263.532,802.475,2245.672,783.338z"/><path fill="#6D3B35" d="M2255.208,762.602c0,0,14.895,5.678,23.059,0.437C2278.267,763.04,2268.819,777.187,2255.208,762.602z"/></g><path fill="#4D463C" d="M576.699,1449.86c-39.706,19.201-98.291,6.26-107.142,65.999     c-10.822,73.059,14.883,101.47-16.236,117.706s63.588,14.883,93.354-54.116c24.642-57.129,33.698-86.072,47.043-105.744     C586.526,1464.303,584.394,1458.813,576.699,1449.86z"/><path opacity="0.2" d="M562.236,1475.198c-3.918,5.641-7.022,11.701-8.879,18.33c-1.821,6.494-1.539,13.396-1.495,20.078     c0.074,10.997-0.288,22.911-8.972,30.891c-6.496,5.969-15.307,6.966-23.702,7.714c-8.094,0.719-16.367,1.683-19.043,10.608     c-2.515,8.378-2.567,17.307-4.762,25.761c-1.578,6.074-4.922,11.05-9.404,15.147c-0.512,8.612-2.903,15.724-9.309,21.721     c-23.309,21.816,47.059-2.378,71.878-59.916c14.592-33.823,22.629-55.798,30.047-71.568c5.357-11.389,3.865-24.765-3.671-34.708     C570.557,1464.461,566.114,1469.612,562.236,1475.198z"/><path fill="#F5EFD2" d="M757.734,893.507c0,0-41.94-20.294-100.119,0c-58.176,20.294-147.47,46.001-110.939,225.943     c36.528,179.94,83.881,266.53,36.528,323.351c-3.956,4.749-7.97,8.688-12.01,11.99c6.403,7.639,12.39,15.632,18.411,23.593     c0.125-0.138,0.236-0.265,0.365-0.404c28.412-31.12,41.941-71.708,41.941-117.708c0-45.999-87.373-217.82-29.481-317.94     C660.321,942.214,757.734,893.507,757.734,893.507z"/><g><path fill="#F5EFD2" d="M1479.444,1471.096c0,0-21.948,265.754,0,343.461c26.334,93.224,25.163,163.497,54.659,157.663      c29.498-5.835,34.964,0.247,34.964,0.247s57.371-20.327,49.332-30.252c-8.039-9.928-56.027-104.448-50.33-141.668      c5.696-37.22,120.791-374.571,120.791-374.571L1479.444,1471.096z"/><path opacity="0.5" fill="#C4BA91" d="M1688.87,1425.971c0,0-33.015,96.705-64.515,192.238c-3.646-4.4-8.942-8.527-16.37-12.312      c-42.987-21.665-66.716,100.627-67.747,103.996c-1.032,3.301-23.593,171.124,6.189,197.261      c15.338,13.481,41.062,17.813,62.453,18.915c4.332,8.252,7.84,14.099,9.491,16.164c8.047,9.904-49.315,30.262-49.315,30.262      s-5.434-6.122-34.94-0.275c-29.507,5.847-28.337-64.447-54.68-157.643c-21.94-77.723,0-343.487,0-343.487L1688.87,1425.971z"/><g><path fill="#4D463C" d="M1664.456,2030.72c-6.338,0.697-13.019,0.85-17.593-0.055c0,0,1.935,11.713-12.045,17.275       c-10.73,4.305-30.864,4.947-68.513-6.128c-86.664-25.475-54.807-91.695-54.807-91.695l76.458-19.885       c0,0,35.362-1.757,44.8,26.37c9.44,28.125,34.535,65.604,46.569,67.984C1687.22,2026.148,1676.497,2029.402,1664.456,2030.72z"/><path opacity="0.2" d="M1679.326,2024.585c-4.001-0.792-9.456-5.516-15.291-12.436c-2.823-0.686-5.632-1.318-8.42-1.753       c-6.04-0.944-11.574-1.1-16.299,3.472c-2.978,2.882-4.871,6.756-6.883,10.324c-2.165,3.839-4.502,7.423-7.575,10.604       c-1.314,1.36-3.374,0.446-4.174-0.899c-3.048-5.135-9.115-6.869-14.645-7.833c-6.46-1.126-13.041-1.439-19.465-2.81       c-5.427-1.161-10.737-3.019-14.996-6.696c-5.166-4.464-10.521-8.623-15.905-12.829c-10.01-7.823-21.734-17.434-23.477-30.941       c-1.495-11.629,8.73-17.773,15.383-25.508c2.118-2.464,3.955-5.177,5.623-8.009l-41.705,10.847c0,0-31.857,66.22,54.807,91.695       c37.649,11.076,57.781,10.433,68.513,6.128c13.979-5.562,12.045-17.275,12.045-17.275c4.572,0.905,11.255,0.752,17.595,0.055       C1676.499,2029.402,1687.22,2026.148,1679.326,2024.585z"/><path opacity="0.2" d="M1646.863,2030.665c0,0,1.935,11.713-12.045,17.275c1.017-3.249,2.962-7.392,6.537-9.911       c6.522-4.661-8.695-11.421-11.166-19.414c-2.495-7.996-21.905-29.966-21.905-29.966c-2.672-7.106,15.048,6.102,21.312,17.045       c6.291,10.923,10.088,13.85,22.594,18.524c6.45,2.403,10.186,4.766,12.266,6.503       C1658.118,2031.418,1651.437,2031.57,1646.863,2030.665z"/></g></g><path fill="#F5EFD2" d="M668.807,1678.809c0,0,79.508,108.643,106.311,184.814c31.072,88.319,29.436,129.206,57.24,117.758     c27.806-11.448,34.347-6.542,34.347-6.542s52.337-31.076,42.525-39.253s-75.234-91.59-76.872-129.206     c-1.635-37.619,45.795-390.891,45.795-390.891L668.807,1678.809z"/><path opacity="0.75" fill="#C4BA91" d="M801.264,1775.096C808.28,1768.973,807.111,1772.278,801.264,1775.096L801.264,1775.096z"/><path opacity="0.5" fill="#C4BA91" d="M869.839,1972.976c-1.994,1.169-3.165,1.857-3.165,1.857s-6.533-4.883-34.321,6.536     c-27.786,11.486-26.136-29.44-57.224-117.752c-26.824-76.139-106.334-184.812-106.334-184.812l209.367-263.288     c0,0-11.143,82.948-22.422,172.705c-20.016-1.377-49.591,5.021-73.321,45.188c-4.814,8.188-59.975,61.216-28.405,116.926     c18.433,32.603,38.31,29.232,47.251,24.761c-0.549,0.48-1.1,1.031-1.788,1.652c-21.666,20.013-34.046,26.205-20.153,35.488     c13.962,9.286,31.571-22.697,26.619,4.883c-4.884,27.583,1.169-9.766-6.466,44.64     C794.455,1897.936,839.3,1945.326,869.839,1972.976z"/><path fill="#F5EFD2" d="M2477.315,1119.505c4.305,6.137,16.201,9.097,17.172,21.479c0.645,8.234-6.513,20.615-10.014,27.934     c0,0,0,0,0,0.055c-19.218,11.358-44.89,19.163-85.368,19.163c-78.48,0-150.444-13.081-217.514,42.522     c-67.068,55.657-174.99,242.058-253.523,284.582c-78.479,42.522-160.243,58.887-160.243,58.887s-13.942,122.669-13.942,152.112     c0,29.443-18.407,85.853-13.457,122.671c4.9,36.818,58.834,98.127,58.834,98.127s-70.243,61.943-76.375,42.297     c-6.139-19.646-56.093-64.366-68.365-119.592c-12.272-55.172,9.58-263.32-32.62-305.843c0,0-569.646,63.352-702.114,0     c-88.654-42.362-132.253-15.451-151.36,6.996h-0.057c-0.16,0.217-0.321,0.431-0.484,0.593c-2.689,3.283-4.897,6.406-6.672,9.204     c-0.431,0.593-0.755,1.238-1.076,1.778c-1.026,1.72-1.887,3.229-2.532,4.576c-1.506,3.065-2.209,5.004-2.209,5.004     s-0.483,0.592-1.397,1.616c-12.329,13.94-98.989,114.111-96.728,162.017c2.475,51.512,9.797,174.183,24.546,193.83     c14.694,19.594,22.069,19.594,22.069,19.594l-77.134,32.189l-1.777,0.752c0,0-0.7-3.123-1.938-8.774     c-1.83-8.397-4.952-22.445-8.881-40.101c-18.247-82.515-53.934-243.403-61.147-272.308     c-9.797-39.24,28.206-87.091,34.341-110.399c5.706-21.69,100.926-81.924,66.799-212.615c-2.53-9.849-5.811-20.023-9.959-30.681     c-58.885-152.114-105.445-227.311-92.797-286.198c7.536-35.038,27.345-85.046,65.885-120.894     c26.319-24.491,61.308-42.308,107.061-44.299c112.874-4.952,288.673,13.887,340.183,48.228     c51.515,34.342,372.913,24.545,456.291,9.796c83.431-14.694,164.386-36.763,306.703,4.952     c142.265,41.661,161.105,31.866,203.575-0.807c42.575-32.727,109.859-78.264,109.859-78.264s-2.206-31.973,39.024-52.643     c24.491-12.272,39.238-1.616,93.228,39.293c53.935,40.857,170.041,192.971,170.041,192.971c-0.541,0.914-0.969,1.882-1.345,2.851     c-7.753,20.455,10.71,46.453,41.229,58.078c23.416,8.883,47.098,6.729,60.394-3.981c-0.486,11.356-4.467,22.607-12.703,31.973     c-28.151-2.96-52.265-18.571-52.265-18.571S2473.008,1113.37,2477.315,1119.505z"/><path opacity="0.2" fill="#C4BA91" d="M2384.287,1153.069c-15.643-5.156-31.768-10.724-48.2-12.648     c-24.712-2.893-49.42,3.828-74.141,1.095c-22.65-2.503-43.742-16.31-62.101-29.004c-18.465-12.764-36.555-26.674-53.812-41.029     c-13.092-10.893-25.053-23.403-32.898-38.663c-7.335-14.264-10.365-29.979-10.995-45.858     c-6.24,5.708-10.781,12.832-12.654,21.318c-2.127,9.635-0.958,19.701,1.594,29.133c4.705,17.397,14.294,33.746,25.771,47.533     c5.175,6.216,10.796,10.657,17.454,15.187c7.519,5.116,15.101,10.252,21.677,16.573c5.477,5.26,10.706,11.97,10.843,19.904     c0.114,6.496-2.598,12.764-9.006,15.092c-6.27,2.278-13.54,0.612-19.604-1.541c-2.749-0.975-5.432-2.198-8.055-3.546     c0.864,1.17,1.738,2.337,2.582,3.518c6.848,9.6,15.029,20.396,12.125,32.784c-1.123,4.791-3.511,9.098-7.927,11.531     c-4.086,2.256-8.942,2.678-13.437,3.599c-6.03,1.239-11.179,3.973-16.634,6.714c-4.607,2.315-9.347,4.978-12.677,9.02     c-6.956,8.452-7.354,21.697-9.256,31.984c-2.047,11.074-3.813,22.38-7.552,33.04c-3.363,9.587-8.697,18.07-15.641,25.464     c-9.366,9.976-20.705,18.304-32.787,24.664c-12.492,6.579-25.613,11.86-38.409,17.803c-12.753,5.923-25.504,12.44-36.248,21.64     c-10.321,8.838-18.024,20.425-23.813,32.631c-11.026,23.25-17.954,50.577-39.798,66.511c-13.947,10.175-32.4,15.978-48.74,8.048     c-15.182-7.366-25.132-22.627-32.574-37.187c-9.135-17.863-15.41-37.105-21.144-56.274c-3.581-11.959-6.62-24.172-10.444-36.092     c-2.807,22.089-4.13,44.33-6.198,66.498c-1.157,12.403-2.351,24.946-4.845,37.163c-2.224,10.895-5.663,21.49-9.457,31.925     c-7.084,19.472-15.68,38.635-20.055,58.972c-4.259,19.791-2.744,40.822-1.985,60.918c0.413,10.953,0.944,21.905,1.331,32.86     c0.341,9.741,0.101,19.533,0.625,29.258c0.797,14.78,4.54,29.946,12.29,42.66c1.454,2.387,3.129,4.572,4.898,6.651     c2.481-42.376,13.437-138.791,13.437-138.791s81.765-16.365,160.243-58.887c78.534-42.524,186.455-228.925,253.523-284.582     c67.07-55.603,139.034-42.522,217.514-42.522c29.393,0,50.957-4.13,67.936-10.735     C2438.779,1172.226,2411.467,1162.022,2384.287,1153.069z"/><path fill="#7E4B42" d="M2543.522,1096.253c-13.295,10.71-36.978,12.864-60.394,3.981     c-30.519-11.624-48.982-37.623-41.229-58.078c0.375-0.969,0.804-1.937,1.345-2.851c0,0,37.677-21.265,68.736-1.616     C2531.949,1050.285,2544.49,1073.699,2543.522,1096.253z"/><path fill="#DDD5B3" d="M2174.971,924.818c0,0,78.188,0.642,87.086-34.398c0,0,22.195,18.665,46.63,42.979     c24.435,24.312,8.656,44.127,37.903,74.824c29.249,30.698,88.723,35.814,88.723,35.814s-47.964,13.429-37.732,58.836     c0,0-33.164-14.819-27.5-44.767c5.667-29.949-30.619-21.877-54.322-61.46C2292.06,957.062,2091.507,1014.444,2174.971,924.818z"/><g><path fill="#4D463C" d="M1874.583,2017.563c-6.084,1.913-12.611,3.36-17.27,3.36c0,0,4.169,11.113-8.465,19.283      c-9.69,6.306-29.316,10.844-68.397,7.287c-89.961-8.168-71.563-79.316-71.563-79.316l71.145-34.345      c0,0,34.345-8.588,49.066,17.172c14.718,25.761,46.613,57.653,58.878,57.653      C1896.024,2008.658,1886.138,2013.931,1874.583,2017.563z"/><path opacity="0.2" d="M1887.976,2008.658c-2.92,0-6.978-1.852-11.629-4.956c-8.942-0.4-18.162-2.466-27.085-1.255      c-0.067,7.005,0.995,14.749-4.954,19.785c-3.068,2.599-7.121,2.971-10.962,3.286c-4.375,0.361-8.258,1.489-12.418,2.825      c-7.593,2.431-15.226,4.943-23.127,6.165c-7.057,1.092-16.38,1.725-22.638-2.471c-2.665-1.79-3.81-4.265-5.048-7.121      c-1.283-2.964-3.138-5.422-5.195-7.891c-4.251-5.103-9.089-9.935-12.2-15.87c-2.912-5.556-3.091-11.525,1.052-16.481      c2.689-3.214,6.026-5.524,9.283-8.107c3.759-2.979,6.48-6.778,9.107-10.759c5.385-8.175,9.869-17.231,11.452-26.969      c0.313-1.916,0.442-3.83,0.56-5.748c-2.55,0.361-4.141,0.741-4.141,0.741l-71.145,34.345c0,0-18.398,71.147,71.563,79.316      c39.081,3.555,58.708-0.982,68.397-7.287c12.635-8.17,8.465-19.283,8.465-19.283c4.662,0,11.186-1.448,17.268-3.36      C1886.138,2013.931,1896.024,2008.658,1887.976,2008.658z"/><path opacity="0.2" d="M1857.313,2020.923c0,0,4.169,11.113-8.465,19.283c0.367-3.387,1.472-7.824,4.489-10.992      c5.494-5.838-10.745-9.517-14.72-16.876c-3.997-7.359-27.303-25.145-27.303-25.145c-4.001-6.452,15.947,3.066,24.213,12.585      c8.291,9.493,12.585,11.629,25.759,13.787c6.796,1.107,10.919,2.7,13.297,3.999      C1868.499,2019.475,1861.972,2020.923,1857.313,2020.923z"/></g><g><path fill="#4D463C" d="M789.63,2045.161c-6.084,1.913-12.611,3.363-17.27,3.363c0,0,4.169,11.111-8.465,19.282      c-9.69,6.305-29.317,10.844-68.397,7.287c-89.961-8.17-71.561-79.314-71.561-79.314l71.143-34.347      c0,0,34.345-8.586,49.066,17.174c14.72,25.759,46.612,57.651,58.878,57.651C811.072,2036.256,801.185,2041.529,789.63,2045.161z      "/><path opacity="0.2" d="M799.493,2041.479c-16.412,2.167-34.227-2.015-49.881-6.589c1.887,6.703,2.066,13.905-1.408,20.175      c-4.204,7.584-12.294,10.648-20.51,11.553c-24.325,2.676-58.937-7.038-63.036-35.29c-1.083-7.444-0.089-15.44,3.404-22.134      c3.865-7.41,10.073-13.129,15.285-19.551c2.602-3.205,5.033-6.62,6.622-10.45c2.018-4.869,2.464-10.376,2.462-15.606      c0-0.282-0.052-0.566-0.056-0.848l-68.437,33.038c0,0-18.401,71.145,71.561,79.316c39.081,3.557,58.708-0.982,68.397-7.287      c12.635-8.17,8.465-19.282,8.465-19.282c4.659,0,11.186-1.449,17.27-3.363C793.249,2044.024,796.701,2042.725,799.493,2041.479z      "/><path opacity="0.2" d="M772.36,2048.523c0,0,4.169,11.111-8.465,19.282c0.369-3.385,1.471-7.825,4.491-10.991      c5.494-5.837-10.745-9.519-14.72-16.879c-3.999-7.359-27.306-25.147-27.306-25.147c-3.998-6.449,15.947,3.07,24.214,12.587      c8.293,9.493,12.587,11.629,25.759,13.787c6.795,1.105,10.919,2.698,13.297,3.999      C783.546,2047.074,777.019,2048.523,772.36,2048.523z"/></g><g><path fill="#4D463C" d="M973.198,2010.227c-6.085,1.913-12.609,3.361-17.27,3.361c0,0,4.169,11.115-8.463,19.284      c-9.69,6.305-29.317,10.844-68.397,7.286c-89.963-8.17-71.565-79.316-71.565-79.316l71.148-34.345      c0,0,34.345-8.586,49.065,17.174c14.719,25.76,46.611,57.651,58.878,57.651C994.639,2001.322,984.753,2006.598,973.198,2010.227      z"/><path opacity="0.2" d="M986.593,2001.322c-5.079,0-13.531-5.509-22.725-13.741c-5.14,2.313-10.444,3.997-16.048,3.708      c-18.103-0.933-27.898-19.954-44.597-23.464c1.784,9.773,1.504,20.838-6.209,27.961c-6.329,5.848-15.728,6.804-23.935,5.921      c-10.226-1.1-20.111-4.893-29.018-9.922c-12.55-7.086-26.971-19.566-29.037-34.575l-7.523,3.632      c0,0-18.398,71.145,71.565,79.316c39.081,3.557,58.708-0.981,68.397-7.286c12.633-8.168,8.463-19.284,8.463-19.284      c4.661,0,11.185-1.447,17.27-3.361C984.755,2006.598,994.641,2001.322,986.593,2001.322z"/><path opacity="0.2" d="M955.928,2013.588c0,0,4.169,11.115-8.463,19.284c0.367-3.385,1.471-7.827,4.489-10.991      c5.496-5.839-10.746-9.519-14.721-16.879c-3.996-7.359-27.303-25.145-27.303-25.145c-3.999-6.454,15.945,3.066,24.214,12.585      c8.291,9.496,12.585,11.627,25.759,13.787c6.795,1.107,10.916,2.698,13.295,3.999      C967.113,2012.141,960.589,2013.588,955.928,2013.588z"/></g><path fill="#F5EFD2" d="M2048.316,944.729c0,0,13.083-20.445-11.45-53.156c-24.533-32.71-26.986-94.859-26.986-94.859     s59.695-12.268,122.664,94.043c0,0,1.638-4.09,33.53-9.814C2197.967,875.219,2162.804,991.339,2048.316,944.729z"/><path fill="#C6B381" d="M2020.902,810.61c0,0,17.858,67.092,43.967,88.734c26.11,21.641,48.124-9.115,48.124-9.115     S2091.197,819.078,2020.902,810.61z"/><path fill="#DDD5B3" d="M2031.134,820.656c0,0,20.871,66.237,42.131,85.046c21.262,18.809,40.889-13.9,40.889-13.9     S2088.378,828.016,2031.134,820.656z"/><g><path fill="#7E4B42" d="M2530.819,1128.226c-0.754,0.913-1.616,1.83-2.475,2.691c-13.457,13.457-25.783,27.344-43.871,38      c3.501-7.32,10.659-19.701,10.014-27.934c-0.971-12.382-12.867-15.342-17.172-21.479c-4.307-6.135,1.239-9.85,1.239-9.85      S2502.668,1125.266,2530.819,1128.226z"/></g><path fill="#7E4B42" d="M2172.513,823.201c0,0,26.372,25.757,0,45.384c-26.374,19.626-56.425-5.521-69.919-7.359     c-13.495-1.841-30.666-36.186,0-57.039c30.666-20.851,91.997-42.319,87.09-87.705c0,0,22.694,20.239,5.52,50.293     c-17.174,30.053-62.855,46.613-51.665,53.972C2154.726,828.107,2172.513,823.201,2172.513,823.201z"/><path opacity="0.1" d="M2199.653,732.566c0.181,3.643-0.057,7.307-0.315,10.488c-0.693,8.546-3.015,17.132-8.341,24.023     c-6.104,7.897-15.796,10.332-24.393,14.506c-8.903,4.322-14.825,12.103-17.663,21.49c-0.669,2.21-0.918,4.595-0.061,6.504     c11.754-9.313,35.112-23.182,46.326-42.804C2203.111,752.941,2202.539,741.224,2199.653,732.566z"/><path opacity="0.1" d="M2172.513,823.201c0,0-0.645,0.175-1.76,0.413c-0.232,5.767-1.682,11.478-4.589,16.439     c-5.11,8.706-14.137,12.167-23.834,12.67c-4.96,0.256-9.917-0.037-14.878-0.098c-4.755-0.059-9.474-0.49-13.94-2.246     c-8.778-3.45-15.779-11.726-18.586-20.646c-1.874-5.956-1.509-12.101-0.697-18.212c-18.475,20.705-3.645,48.067,8.365,49.704     c13.494,1.839,43.545,26.986,69.919,7.359C2198.885,848.958,2172.513,823.201,2172.513,823.201z"/><g><path fill="#6D3B35" d="M2152.635,869.125c0,0,13.409-26.564,8.485-42.057C2161.12,827.068,2178.701,845.893,2152.635,869.125z"/><path fill="#6D3B35" d="M2129.165,860.469c0,0,19.34-22.613,18.242-38.83C2147.407,821.64,2160.007,844.103,2129.165,860.469z"/><path fill="#6D3B35" d="M2095.025,841.14c0,0,29.369-4.799,38.991-17.897C2134.016,823.243,2129.15,848.534,2095.025,841.14z"/><path fill="#6D3B35" d="M2127.401,799.632c0,0,9.633,11.929,17.951,12.9C2145.352,812.532,2132.783,816.798,2127.401,799.632z"/><path fill="#6D3B35" d="M2149.955,779.577c0,0,9.635,11.928,17.954,12.899C2167.908,792.476,2155.34,796.744,2149.955,779.577z"/></g><path opacity="0.2" fill="#C4BA91" d="M668.282,1008.629c-31.715,84.574,18.844,126.246,8.518,193.304     c-10.326,67.057,60.7,141.452,60.7,141.452s-31.075-106.311,4.906-160.283c35.981-53.972,49.065-93.224,49.065-93.224     s35.981,52.335,32.71,47.431c-3.269-4.909-24.533-71.964-13.083-85.049c11.448-13.083,160.283-42.524,152.103-40.888     c-8.177,1.635-137.385-8.177-137.385-8.177s-4.904-35.981,29.441-26.168c34.345,9.814,34.345-1.636,34.345-1.636     s-19.626-9.812-57.243-24.533C794.743,936.139,708.782,900.629,668.282,1008.629z"/><path opacity="0.2" fill="#C4BA91" d="M1621.908,1563.906c0,0-569.655,63.369-702.132,0     c-132.476-63.371-164.369,28.162-164.369,28.162s-0.492,0.565-1.423,1.618c20.436-40.946,42.859-90.353,51.958-125.852     c18.474-71.979-10.965-125.413-10.965-125.413s58.878,67.049,57.237,142.023c0,0,24.067-36.235,25.93-68.962     c0,0,19.871,65.697,6.795,77.84c-13.098,12.121,89.939-48.674,135.741-67.341c45.801-18.669,219.154,95.825,367.993,84.368     C1537.513,1498.891,1593.451,1524.235,1621.908,1563.906z"/><path opacity="0.2" fill="#C4BA91" d="M654.161,1357.853c-2.554-9.836-5.84-20.042-9.961-30.69     c-58.878-152.106-105.442-227.322-92.783-286.201c7.505-35.01,27.329-85.031,65.87-120.898     c63.05-16.537-48.01,141.334-27.158,218.612C610.98,1215.933,655.582,1324.366,654.161,1357.853z"/><path fill="#68342D" d="M2530.587,1080.664c0,4.635-6.121,8.393-13.668,8.393c-7.549,0-13.671-3.758-13.671-8.393     c0-4.637,6.122-8.393,13.671-8.393C2524.466,1072.271,2530.587,1076.027,2530.587,1080.664z"/><g><path fill="#FFFFFF" d="M2302.423,962.5c0,0-30.795,12.427-49.506,2.418c-7.477-3.999-35.151-30.86-24.054-38.083      c4.556-2.919,16.236-5.722,23.488-4.972c8.695,0.855,18.446,4.253,27.244,9.749c1.856,1.104,3.759,2.075,5.298,3.607      C2302.509,952.764,2303.414,961.015,2302.423,962.5z"/><g><path fill="#7E4B42" d="M2271.931,952.74c-7.976,5.109-18.656,2.77-23.764-5.206c-4.847-7.567-3.03-17.456,3.927-22.716       c8.699,0.857,18.448,4.255,27.249,9.751C2280.932,941.351,2278.196,948.728,2271.931,952.74z"/><path fill="#FFFFFF" d="M2280.641,949.283c-1.9,1.218-4.427,0.664-5.647-1.237c-1.218-1.9-0.662-4.429,1.237-5.648       c1.902-1.215,4.43-0.664,5.647,1.237C2283.096,945.538,2282.541,948.065,2280.641,949.283z"/><path fill="#FFFFFF" d="M2251.858,942.665c-3.704,2.372-8.63,1.292-11.002-2.411c-2.37-3.702-1.292-8.628,2.411-10.999       c3.704-2.372,8.63-1.294,11,2.409C2256.639,935.367,2255.562,940.291,2251.858,942.665z"/></g></g></g><path fill="#6D3B35" d="M2168.313,768.066c0,0,7.86,10.184,15.409,10.396C2183.722,778.462,2171.849,783.412,2168.313,768.066z"/></g><g><path fill="#C6B381" d="M2047.194,917.679c-2.658,3.337-4.48,5.418-7.742,8.12c-2.599,2.151-5.387,3.982-8.319,5.542    c35.054,106.066,270.057,134.521,270.057,134.521l19.08-25.949C2121.213,1025.192,2053.528,927.883,2047.194,917.679z"/><path opacity="0.1" d="M2320.269,1039.909l-19.052,25.93c0,0-234.609-28.338-269.961-134.19    c3.508,5.847,61.833,99.249,208.334,114.175l25.104-12.587C2281.958,1036.194,2300.46,1038.464,2320.269,1039.909z"/><path fill="#C6B381" d="M2385.747,967.117c0,0-136.567,85.588-122.765,228.842c0,0,58.087,10.698,67.523,0    c9.434-10.7,7.084-134.302,103.306-177.788C2433.811,1018.17,2411.572,974.898,2385.747,967.117z"/><path opacity="0.1" d="M2433.825,1018.174c-96.223,43.468-93.884,167.067-103.307,177.795c-9.424,10.661-67.543,0-67.543,0    c-0.481-4.539-0.755-9.08-0.824-13.481c29.712,7.223,56.055,0.138,62.177-43.194c11.692-82.605,76-114.793,107.02-125.661    C2432.931,1016.455,2433.825,1018.174,2433.825,1018.174z"/><path fill="#7E4B42" d="M2145.361,1027.657c0,0,13.103,11.598,17.268,9.06c4.165-2.538,12.25-26.861,13.16-30.699    c0.909-3.837-19.236-7.674-19.236-7.674l-1.439,2.879c0,0,15.348,4.316,15.189,6.555c-0.16,2.237-8.234,24.782-9.714,25.261    c-1.478,0.479-14.729-6.684-14.729-6.684L2145.361,1027.657z"/><path opacity="0.1" d="M2163.932,1014.678c0,1.929-1.563,3.492-3.491,3.492c-1.929,0-3.489-1.563-3.489-3.492    c0-1.926,1.561-3.491,3.489-3.491C2162.368,1011.187,2163.932,1012.752,2163.932,1014.678z"/><path opacity="0.1" d="M2138.931,1005.325c0,1.928-1.563,3.491-3.491,3.491c-1.929,0-3.492-1.563-3.492-3.491    c0-1.929,1.563-3.489,3.492-3.489C2137.368,1001.836,2138.931,1003.397,2138.931,1005.325z"/><path opacity="0.1" d="M2192.951,1025.649c0,1.931-1.565,3.492-3.492,3.492c-1.928,0-3.491-1.561-3.491-3.492    c0-1.926,1.563-3.491,3.491-3.491C2191.386,1022.158,2192.951,1023.723,2192.951,1025.649z"/><path opacity="0.1" d="M2218.24,1032.635c0,1.926-1.563,3.489-3.489,3.489c-1.931,0-3.494-1.563-3.494-3.489    c0-1.931,1.563-3.494,3.494-3.494C2216.677,1029.141,2218.24,1030.704,2218.24,1032.635z"/><path fill="#7E4B42" d="M2160.589,1013.373c0,0-18.824-11.752-20.503-8.873c-1.68,2.878,17.987,12.23,19.185,12.23    C2160.471,1016.731,2160.589,1013.373,2160.589,1013.373z"/></g></g><g id="Muslim"><g><path fill="#E2DBBF" d="M834.883,2394.613c129.85-24.336,294.159-79.133,258.113-90.082    c-19.662-5.97-260.988,21.126-287.919,51.548C778.144,2386.501,834.883,2394.613,834.883,2394.613z"/><path fill="#E2DBBF" d="M1319.131,2400.136c129.85-24.338,295.873-61.578,262.07-78.205    c-61.213-30.112-264.945,9.249-291.876,39.672C1262.392,2392.024,1319.131,2400.136,1319.131,2400.136z"/></g><g><g><g><path fill="#FFB281" d="M1102.464,2141.367c0,0-60.38,38.036-53.151,63.008c7.238,24.966,29.445,33.933,21.329,72.72      c-7.512,35.901-102.297-83.326-108.005-85.581c-5.713-2.237,47.616-93.558,47.616-93.558L1102.464,2141.367z"/><path fill="#6B503D" d="M1072.69,2256.696c0,0,46.885,19.129,25.92,48.352c-12.255,17.083-170.133-63.954-157.778-94.025      c18.011-43.836,27.539-43.836,27.539-43.836S1025.26,2175.576,1072.69,2256.696z"/></g><path fill="#7F634F" d="M1392.425,1460.266c0,0-139.688,567.916-319.283,722.978l-93.26-31.175     c0,0,85.769-220.792,139.097-447.003c39.47-167.432,49.391-341.342,55.048-412.569     C1187.328,1125.039,1392.425,1460.266,1392.425,1460.266z"/><path fill="#6B503D" d="M1392.455,1460.262c0,0-139.74,567.951-319.336,722.95l-21.53-7.2     c135.248-95.609,92.042-379.452,156.922-464.217c75.188-98.231,5.051-317.48-44.559-350.848     c11.284-44.642,7.826-40.193,10.053-68.446C1187.336,1125.026,1392.455,1460.262,1392.455,1460.262z"/></g><g><path fill="#FFB281" d="M1505.336,2180.027c0,0-32.841,63.354-13.973,81.238c18.876,17.875,42.566,14.374,55.188,51.938     c11.682,34.77-130.393-20.126-136.457-19.184c-6.062,0.962-6.258-104.789-6.258-104.789L1505.336,2180.027z"/><path fill="#6B503D" d="M1537.438,2294.9c0,0,50.121-7.219,46.82,28.597c-1.93,20.934-179.112,30.9-183.668-1.289     c-6.641-46.925,1.58-51.745,1.58-51.745S1455.485,2248.92,1537.438,2294.9z"/></g><path fill="#7F634F" d="M1233.72,1337.292c0,0,177.339,748.775,150.726,889.363h126.381c0,0,1.003-779.699-27.821-891.336    C1454.183,1223.685,1233.72,1337.292,1233.72,1337.292z"/><g><g><path fill="#FFB598" d="M1803.861,1095.848c-5.476-6.639-41.087,7.435-41.087,7.435s53.085-31.388,46.494-38.299      c-6.592-6.908-53.364,19.253-53.364,19.253s57.042-36.229,54.821-46.279c-2.221-10.053-63.212,30.965-63.212,30.965      s46.386-43.986,40.303-51.205c-6.089-7.217-52.769,37.375-64.377,44.458c-7.533,4.597-15.331,1.751-12.055-6.902      c3.276-8.651-3.843-25.576-10.727-25.177c-6.887,0.399-2.784,30.685-11.078,38.123c-8.292,7.435-15.815,18.363-15.464,24.504      c-3.758,14.402,20.252,43.317,20.252,43.317s17,2.936,33.793-3.033C1744.952,1127.038,1809.337,1102.488,1803.861,1095.848z"/></g><path fill="#FFB598" d="M1543.8,1084.742c30.518,1.981,130.314,7.983,130.314,7.983l32.08,43.532     c0,0-83.047,42.82-150.731,51.809C1487.779,1197.056,1521.287,1097.737,1543.8,1084.742z"/></g><path fill="#C6B381" d="M1274.007,828.42c0,0-154.422,116.724-164.104,189.586c-14.441,108.667,102.695,162.732,102.695,162.732    L1274.007,828.42z"/><path opacity="0.2" fill="#C4BA91" d="M1251.286,958.828l-38.664,221.872c0,0-74.388-29.449-99.854-111.841    C1175.741,1055.662,1224.43,995.794,1251.286,958.828z"/><path fill="#C6B381" d="M1174.027,1105.95c7.302,102.353-31.443,259.72-17.061,257.116    c127.551,57.023,321.608,37.839,321.608,37.839l4.431-65.586c17.377,44.751,32.29,58.396,38.706,64.991    c46.818-12.533-39.713-245.965-56.3-257.543c135.677,109.769,128.619-1.277,81.821-94.457    c-54.393-108.307-164.444-212.265-197.245-226.88c-21.724-9.678-43.648-10.369-64.954,0.194    C1220.669,853.53,1172.216,1008.699,1174.027,1105.95z"/><g><path fill="#7F634F" d="M1174.943,1133.874c-0.839,0.138-3.38-10.77-3.774-28.729c-0.29-17.92,1.778-42.629,6.614-69.404     c9.542-53.627,24.391-95.286,26.289-94.659c2.077,0.612-9.429,42.94-18.858,95.97c-4.785,26.498-7.642,50.663-8.712,68.216     C1175.539,1122.81,1176.167,1133.72,1174.943,1133.874z"/></g><g opacity="0.35"><path fill="#8C7750" d="M1404.757,1279.59c1.457,0.92-4.335,13.517-21.745,26.609c-17.081,13.138-46.217,24.455-79.207,24.46     c-32.874-0.036-61.164-9.013-80.413-16.662c-19.34-7.83-30.367-14.518-29.648-16.37c0.776-2.018,13.23,1.179,32.945,6.262     c19.68,4.955,46.929,11.734,77.066,11.737c30.023-0.043,56.492-8.588,73.458-18.335     C1394.401,1287.682,1402.909,1278.074,1404.757,1279.59z"/></g><g opacity="0.35"><path fill="#8C7750" d="M1423.458,1213.327c0.904,0.298,1.184,3.134-0.279,7.893c-1.447,4.725-4.994,11.226-11.163,17.641     c-6.129,6.449-14.84,12.549-25.238,17.429c-10.411,4.731-22.271,8.641-35.039,11.087c-25.568,4.856-48.832,4.054-65.289,2.621     c-16.51-1.532-26.547-3.858-26.496-5.892c0.05-2.117,10.29-3.546,26.583-4.739c16.273-1.272,38.634-2.226,62.329-6.748     c23.696-4.581,44.077-12.414,56.075-21.697C1417.25,1221.922,1421.295,1212.559,1423.458,1213.327z"/></g><path opacity="0.35" fill="#8C7750" d="M1466.067,1143.291c17.982,16.746,101.87,244.64,55.643,256.986    c-6.406-6.56-21.301-20.219-38.743-64.979l-4.398,65.597c0,0-194.016,19.216-321.58-37.815c-3.321,0.618-3.783-7.178-2.701-20.683    c179.967,48.542,277.591-26.392,307.92-76.632c32.106-53.25-53.172-209.218-55.408-213.308    c53.094,56.492,119.463,62.124,164.456,57.418C1590.239,1179.562,1571.333,1228.258,1466.067,1143.291z"/><path fill="#7F634F" d="M1470.37,1149.15c0,0,93.144,212.79,51.34,251.127c0,0,25.959-9.018,20.256-60.344    C1530.047,1232.656,1470.37,1149.15,1470.37,1149.15z"/><path fill="#7F634F" d="M1541.05,1072.181c-3.845-16.743,6.876-25.077,13.752-22.847c6.878,2.231,19.062,18.708,22.943,22.847    c3.878,4.141,17.632,112.796-11.939,126.548c-29.569,13.755-50.471-17.31-50.471-17.31S1550.678,1114.117,1541.05,1072.181z"/><path fill="#7F634F" d="M1401.68,1031.029l68.767,111.386C1470.447,1142.416,1405.346,1078.344,1401.68,1031.029z"/></g><g><path fill="#FFB598" d="M1443.657,671.363c0,0,0.967,47.043-1.841,61.606c-2.808,14.555,4.364,19.875,4.364,19.875    s-4.534,9.042-9.773,11.027c-5.239,1.967-2.593,23.272-22.296,36.607c-19.705,13.335-31.922-6.145-42.136,5.936    c-10.223,12.112-9.714,25.896-9.714,25.896s-60.603,21.982-73.865-17.954c0,0,7.233-24.788,5.9-33.69    c-1.333-8.917-3.298-94.107,9.757-105.548C1317.093,663.664,1443.657,671.363,1443.657,671.363z"/><path opacity="0.15" fill="#33133F" d="M1383.904,790.946c-2.583-6.734-3.767-14.129-7.462-20.373    c-3.207,2.633-5.203,6.542-7.82,9.739c-3.264,3.987-6.965,7.753-11.029,10.928c-3.774,2.944-7.62,4.727-12.387,5.284    c-3.034,0.354-6.074,0.385-9.046,0.924c7.33,6.939,15.675,12.887,21.317,21.407c2.099,3.166,3.867,6.509,5.458,9.941    c2.05-8.793,4.966-17.553,9.04-22.381c5.486-6.487,11.562-3.881,19.05-2.137C1388.195,800.101,1385.729,795.705,1383.904,790.946z    "/><path fill="#7F634F" d="M1396.582,730.694c0,0-3.061-7.995-4.435-6.115c-1.372,1.88,1.876,5.012,1.876,5.012    s-6.848-1.009-4.556,2.715C1391.759,736.028,1396.582,730.694,1396.582,730.694z"/><path fill="#7F634F" d="M1430.288,703.175c-1.438,4.688,17.048,9.032,15.854,4.945    C1444.944,704.033,1432.278,696.69,1430.288,703.175z"/><path fill="#7F634F" d="M1423.828,722.403c-0.894,3.783,5.446-0.523,10.272-0.476c5.081-0.869,8.651,2.62,8.086,0.827    C1443.951,717.733,1427.922,709.33,1423.828,722.403z"/><g><path fill="#7F634F" d="M1459.596,666.243c-14.089-18.793-21.018-33.296-40.206-19.19c-12.162,8.943-16.676,20.578-11.629,28.605     c-36.281-0.918-100.611-2.188-107.534,0.126c-9.696,3.226-14.249,10.223-20.264,34.646c-6.013,24.413-6.677,15.031,0.653,45.853     c7.336,30.797,6.838,23.761,19.013,36.891c12.18,13.128,24.541,1.98,32.386-6.483c7.857-8.468,22.725-4.125,41.672-6.602     c0.266-0.037,0.486-0.101,0.746-0.142c-0.174,9.384,2.936,21.57,16.873,29.63c24.477,14.157,45.223-41.441,42.786-42.734     c-2.439-1.294-19.62-0.67-21.637-2.164c-1.305-0.964-3.721-19.078-5.174-30.566c2.008-3.462,4.163-10.962,5.168-16.698     c1.866-10.66,19.289-20.934,20.837-26.451c0.533-1.906,0.574-4.238,0.417-6.479     C1446.348,683.676,1470.139,680.305,1459.596,666.243z M1383.45,744.168c-8.674-16.562-0.17-25.495,5.8-33.131     c5.971-7.644,12.529,4.51,13.999,19.247c0.047,0.46,0.11,0.802,0.164,1.201C1404.625,761.685,1385.118,747.355,1383.45,744.168z"/></g><path fill="#6B503D" d="M1285.577,775.076c1.577-6.922,2.577-13.971,4.403-20.837c1.811-6.811,4.895-13.37,11.127-17.152    c7.551-4.583,16.882-3.843,25.34-4.238c4.125-0.191,12.725-0.424,15.484-4.283c1.84-2.573,0.829-7.131,2.101-10.156    c2.684-6.392,9.289-9.567,15.385-11.959c15.309-6.015,31.618-8.894,46.14-17.036c8.724-4.893,16.192-12.27,19.812-21.747    c3.096-8.096,3.059-16.892,3.082-25.484c-2.719,0.844-5.691,2.394-9.061,4.87c-12.162,8.943-16.676,20.578-11.629,28.605    c-36.281-0.918-100.611-2.188-107.534,0.126c-9.696,3.226-14.249,10.223-20.264,34.646c-6.013,24.413-6.677,15.031,0.653,45.853    C1282.775,765.354,1284.252,771.09,1285.577,775.076z"/><path fill="#C6B381" d="M1423.673,658.864c-10.672,34.576-122.867,39.572-136.485,26.425    c-13.609-13.133-9.346-77.461,70.739-85.087C1404.481,595.77,1430.752,635.933,1423.673,658.864z"/><path opacity="0.2" fill="#C4BA91" d="M1394.988,648.844c0,0-2.034-2.263-4.347-4.643c2.111-2.026,4.156-4.03,5.899-5.817    c2.178,2.851,4.238,5.266,4.238,5.266s-1.544-2.952-3.369-6.163c3.162-3.302,5.027-5.644,3.813-5.521    c-0.908,0.091-2.711,1.485-4.939,3.568c-2.186-3.716-4.415-7.062-4.731-5.867c-0.289,1.092,1.538,4.016,3.639,6.909    c-1.843,1.793-3.904,3.946-5.973,6.187c-2.621-2.607-5.154-4.83-5.174-3.704c-0.02,0.993,1.941,2.897,4.204,4.763    c-1.641,1.799-3.26,3.614-4.751,5.312c-2.342-3.112-4.743-5.955-4.927-4.79c-0.168,1.064,1.815,3.503,4.011,5.837    c-3.535,4.052-6.137,7.172-6.137,7.172s3.007-2.699,6.937-6.331c2.352,2.421,4.68,4.522,4.68,4.522s-1.769-2.62-3.78-5.354    c1.74-1.617,3.622-3.379,5.484-5.152C1392.415,647.1,1394.988,648.844,1394.988,648.844z"/><path opacity="0.35" fill="#8C7750" d="M1349.383,628.092c-0.18,12.272-45.205,32.892-43.447,11.015    C1307.695,617.231,1349.58,614.625,1349.383,628.092z"/><path opacity="0.35" fill="#8C7750" d="M1287.39,640.755c-0.478,5.514,0.46,11.096,3.604,16.501    c6.698,11.52,21.087,14.925,32.857,11.18c7.002-2.227,12.416-7.502,18.906-10.774c8.323-4.192,15.708,0.537,23.722,3.258    c7.101,2.41,14.729,4.331,22.201,2.797c7.413-1.523,14.089-6.752,19.95-11.513c5.51-4.477,10.422-9.915,12.717-16.938    c3.517,8.305,4.449,16.725,2.326,23.599c-10.672,34.576-122.867,39.572-136.485,26.425    C1280.393,678.731,1278.059,659.407,1287.39,640.755z"/><path fill="#6B503D" d="M1384.056,762.682c-4.121,2.166-8.004,4.809-12.336,6.583c-0.055,0.022-0.111,0.034-0.164,0.057    c-6.422,4.214-13.12,8.012-19.846,11.762c6.428-0.107,13.791,0.075,21.978-0.994c0.266-0.037,0.486-0.101,0.746-0.142    c-0.174,9.384,2.936,21.57,16.873,29.63c8.004,4.632,15.588,1.742,22.115-4.208C1397.253,797.844,1388.91,780.51,1384.056,762.682    z"/><path fill="#6B503D" d="M1319.699,713.568c0.83,6.797-0.995,49.555,1.339,39.395c2.284-9.953,0.928-16.779,0.928-16.779    l1.827,7.915c0,0,6.49-26.307,4.194-30.547c-2.295-4.242-3.862,7.634-3.862,7.634L1319.699,713.568z"/><path fill="#6B503D" d="M1293.967,722.636c1.479,8.442,19.235,58.968,12.741,47.653c-6.359-11.082-7.221-19.749-7.221-19.749    l0.691,10.141c0,0-17.347-29.131-16.143-35.045c1.204-5.913,7.401,7.734,7.401,7.734L1293.967,722.636z"/><path fill="#6B503D" d="M1341.84,738.749c4.581-10.61,14.133-15.268,12.962-18.633c0,0,4.149,12.148-3.657,18.177l8.619,4.106    c0,0-2.136,21.627-14.451,28.868l4.01-20.201C1349.323,751.067,1340.532,741.778,1341.84,738.749z"/><path fill="#7F634F" d="M1370.492,817.466c0,0-16.11,6.773-46.243-2.415c-30.13-9.187-34.257-14.836-34.257-14.836    s-6.953-1.375-17.496,22.272c-10.541,23.648,53.186,36.411,81.059,21.632c27.875-14.781,27.902-9.749,27.902-9.749    L1370.492,817.466z"/></g></g></svg>